<mxfile host="65bd71144e">
    <diagram id="YI7M7qDNCdbo3GiNMOz-" name="Page-1">
        <mxGraphModel dx="1926" dy="984" grid="1" gridSize="10" guides="1" tooltips="1" connect="1" arrows="1" fold="1" page="1" pageScale="1" pageWidth="850" pageHeight="1100" math="0" shadow="0">
            <root>
                <mxCell id="0"/>
                <mxCell id="1" parent="0"/>
                <mxCell id="9" value="" style="endArrow=none;startArrow=none;endFill=0;startFill=0;endSize=8;html=1;verticalAlign=bottom;dashed=1;labelBackgroundColor=none;" edge="1" parent="1">
                    <mxGeometry width="160" relative="1" as="geometry">
                        <mxPoint x="120" y="560" as="sourcePoint"/>
                        <mxPoint x="119.99999999999977" y="160" as="targetPoint"/>
                    </mxGeometry>
                </mxCell>
                <mxCell id="10" value="USUÁRIO" style="shape=umlActor;verticalLabelPosition=bottom;verticalAlign=top;html=1;" vertex="1" parent="1">
                    <mxGeometry x="110" y="70" width="30" height="60" as="geometry"/>
                </mxCell>
                <mxCell id="11" value="" style="endArrow=none;startArrow=none;endFill=0;startFill=0;endSize=8;html=1;verticalAlign=bottom;dashed=1;labelBackgroundColor=none;" edge="1" parent="1" source="24">
                    <mxGeometry width="160" relative="1" as="geometry">
                        <mxPoint x="280" y="440" as="sourcePoint"/>
                        <mxPoint x="279.9999999999998" y="159.9999999999999" as="targetPoint"/>
                    </mxGeometry>
                </mxCell>
                <mxCell id="13" value="" style="endArrow=none;startArrow=none;endFill=0;startFill=0;endSize=8;html=1;verticalAlign=bottom;dashed=1;labelBackgroundColor=none;" edge="1" parent="1">
                    <mxGeometry width="160" relative="1" as="geometry">
                        <mxPoint x="440" y="560" as="sourcePoint"/>
                        <mxPoint x="439.9999999999998" y="159.9999999999999" as="targetPoint"/>
                    </mxGeometry>
                </mxCell>
                <mxCell id="14" value="APRESENTAÇÃO&lt;br&gt;Cadastro&lt;br&gt;sonho" style="whiteSpace=wrap;html=1;" vertex="1" parent="1">
                    <mxGeometry x="220" y="100" width="120" height="60" as="geometry"/>
                </mxCell>
                <mxCell id="16" value="" style="endArrow=none;startArrow=none;endFill=0;startFill=0;endSize=8;html=1;verticalAlign=bottom;dashed=1;labelBackgroundColor=none;" edge="1" parent="1">
                    <mxGeometry width="160" relative="1" as="geometry">
                        <mxPoint x="600" y="560" as="sourcePoint"/>
                        <mxPoint x="599.9999999999998" y="159.9999999999999" as="targetPoint"/>
                    </mxGeometry>
                </mxCell>
                <mxCell id="18" value="NEGÓCIO&lt;br&gt;Cadastro&lt;br&gt;sonho" style="whiteSpace=wrap;html=1;" vertex="1" parent="1">
                    <mxGeometry x="380" y="100" width="120" height="60" as="geometry"/>
                </mxCell>
                <mxCell id="19" value="DADOS&lt;br&gt;Cadastro&lt;br&gt;sonho" style="whiteSpace=wrap;html=1;" vertex="1" parent="1">
                    <mxGeometry x="540" y="100" width="120" height="60" as="geometry"/>
                </mxCell>
                <mxCell id="20" value="" style="endArrow=block;startArrow=none;endFill=1;startFill=0;endSize=8;html=1;verticalAlign=bottom;labelBackgroundColor=none;exitX=0.013;exitY=0.858;exitDx=0;exitDy=0;exitPerimeter=0;" edge="1" parent="1" source="29">
                    <mxGeometry width="160" relative="1" as="geometry">
                        <mxPoint x="125" y="200" as="sourcePoint"/>
                        <mxPoint x="275" y="200" as="targetPoint"/>
                    </mxGeometry>
                </mxCell>
                <mxCell id="21" value="" style="endArrow=block;startArrow=none;endFill=1;startFill=0;endSize=8;html=1;verticalAlign=bottom;labelBackgroundColor=none;" edge="1" parent="1">
                    <mxGeometry width="160" relative="1" as="geometry">
                        <mxPoint x="285" y="199.9999999999999" as="sourcePoint"/>
                        <mxPoint x="285" y="240" as="targetPoint"/>
                        <Array as="points">
                            <mxPoint x="365" y="200"/>
                            <mxPoint x="365" y="240"/>
                        </Array>
                    </mxGeometry>
                </mxCell>
                <mxCell id="22" value="" style="endArrow=block;startArrow=none;endFill=1;startFill=0;endSize=8;html=1;verticalAlign=bottom;labelBackgroundColor=none;" edge="1" parent="1" source="24" target="26">
                    <mxGeometry width="160" relative="1" as="geometry">
                        <mxPoint x="290" y="280" as="sourcePoint"/>
                        <mxPoint x="410" y="280" as="targetPoint"/>
                        <Array as="points">
                            <mxPoint x="400" y="280"/>
                        </Array>
                    </mxGeometry>
                </mxCell>
                <mxCell id="23" value="" style="endArrow=block;startArrow=none;endFill=1;startFill=0;endSize=8;html=1;verticalAlign=bottom;labelBackgroundColor=none;" edge="1" parent="1">
                    <mxGeometry width="160" relative="1" as="geometry">
                        <mxPoint x="445" y="279.9999999999999" as="sourcePoint"/>
                        <mxPoint x="445" y="320" as="targetPoint"/>
                        <Array as="points">
                            <mxPoint x="525" y="280"/>
                            <mxPoint x="525" y="320"/>
                        </Array>
                    </mxGeometry>
                </mxCell>
                <mxCell id="25" value="" style="endArrow=none;startArrow=none;endFill=0;startFill=0;endSize=8;html=1;verticalAlign=bottom;dashed=1;labelBackgroundColor=none;" edge="1" parent="1" target="24">
                    <mxGeometry width="160" relative="1" as="geometry">
                        <mxPoint x="280" y="560" as="sourcePoint"/>
                        <mxPoint x="279.9999999999998" y="159.9999999999999" as="targetPoint"/>
                    </mxGeometry>
                </mxCell>
                <mxCell id="24" value="" style="html=1;points=[];perimeter=orthogonalPerimeter;" vertex="1" parent="1">
                    <mxGeometry x="275" y="190" width="10" height="330" as="geometry"/>
                </mxCell>
                <mxCell id="26" value="" style="html=1;points=[];perimeter=orthogonalPerimeter;" vertex="1" parent="1">
                    <mxGeometry x="435" y="270" width="10" height="250" as="geometry"/>
                </mxCell>
                <mxCell id="27" value="" style="endArrow=block;startArrow=none;endFill=1;startFill=0;endSize=8;html=1;verticalAlign=bottom;labelBackgroundColor=none;exitX=0.083;exitY=1;exitDx=0;exitDy=0;exitPerimeter=0;" edge="1" parent="1" source="34">
                    <mxGeometry width="160" relative="1" as="geometry">
                        <mxPoint x="450" y="360" as="sourcePoint"/>
                        <mxPoint x="600" y="360" as="targetPoint"/>
                    </mxGeometry>
                </mxCell>
                <mxCell id="28" value="" style="endArrow=block;startArrow=none;endFill=1;startFill=0;endSize=8;html=1;verticalAlign=bottom;dashed=1;labelBackgroundColor=none;" edge="1" parent="1">
                    <mxGeometry width="160" relative="1" as="geometry">
                        <mxPoint x="600" y="380" as="sourcePoint"/>
                        <mxPoint x="444.9999999999998" y="380" as="targetPoint"/>
                    </mxGeometry>
                </mxCell>
                <mxCell id="29" value="1. Criar sonho" style="text;html=1;align=center;verticalAlign=middle;resizable=0;points=[];autosize=1;strokeColor=none;fillColor=none;" vertex="1" parent="1">
                    <mxGeometry x="120" y="175" width="100" height="30" as="geometry"/>
                </mxCell>
                <mxCell id="30" value="2. Monta entidade&lt;br&gt;apresentação" style="text;html=1;align=center;verticalAlign=middle;resizable=0;points=[];autosize=1;strokeColor=none;fillColor=none;" vertex="1" parent="1">
                    <mxGeometry x="270" y="165" width="120" height="40" as="geometry"/>
                </mxCell>
                <mxCell id="31" value="3. Criar sonho" style="text;html=1;align=center;verticalAlign=middle;resizable=0;points=[];autosize=1;strokeColor=none;fillColor=none;" vertex="1" parent="1">
                    <mxGeometry x="280" y="255" width="100" height="30" as="geometry"/>
                </mxCell>
                <mxCell id="32" value="4. Monta entidade&lt;br&gt;negócio" style="text;html=1;align=center;verticalAlign=middle;resizable=0;points=[];autosize=1;strokeColor=none;fillColor=none;" vertex="1" parent="1">
                    <mxGeometry x="435" y="245" width="120" height="40" as="geometry"/>
                </mxCell>
                <mxCell id="34" value="5. Verifica registros similares" style="text;html=1;align=center;verticalAlign=middle;resizable=0;points=[];autosize=1;strokeColor=none;fillColor=none;" vertex="1" parent="1">
                    <mxGeometry x="435" y="330" width="180" height="30" as="geometry"/>
                </mxCell>
                <mxCell id="36" value="" style="endArrow=block;startArrow=none;endFill=1;startFill=0;endSize=8;html=1;verticalAlign=bottom;labelBackgroundColor=none;entryX=0.929;entryY=0.673;entryDx=0;entryDy=0;entryPerimeter=0;" edge="1" parent="1" target="26">
                    <mxGeometry width="160" relative="1" as="geometry">
                        <mxPoint x="445" y="410" as="sourcePoint"/>
                        <mxPoint x="600" y="410" as="targetPoint"/>
                        <Array as="points">
                            <mxPoint x="520" y="410"/>
                            <mxPoint x="520" y="438"/>
                        </Array>
                    </mxGeometry>
                </mxCell>
                <mxCell id="37" value="6. Valida sonho" style="text;html=1;align=center;verticalAlign=middle;resizable=0;points=[];autosize=1;strokeColor=none;fillColor=none;" vertex="1" parent="1">
                    <mxGeometry x="435" y="380" width="110" height="30" as="geometry"/>
                </mxCell>
                <mxCell id="39" value="" style="endArrow=block;startArrow=none;endFill=1;startFill=0;endSize=8;html=1;verticalAlign=bottom;dashed=1;labelBackgroundColor=none;" edge="1" parent="1">
                    <mxGeometry width="160" relative="1" as="geometry">
                        <mxPoint x="430" y="510" as="sourcePoint"/>
                        <mxPoint x="284.9999999999998" y="510" as="targetPoint"/>
                    </mxGeometry>
                </mxCell>
                <mxCell id="40" value="" style="endArrow=block;startArrow=none;endFill=1;startFill=0;endSize=8;html=1;verticalAlign=bottom;dashed=1;labelBackgroundColor=none;" edge="1" parent="1">
                    <mxGeometry width="160" relative="1" as="geometry">
                        <mxPoint x="270" y="510" as="sourcePoint"/>
                        <mxPoint x="119.99999999999977" y="510" as="targetPoint"/>
                    </mxGeometry>
                </mxCell>
                <mxCell id="41" value="" style="endArrow=block;startArrow=none;endFill=1;startFill=0;endSize=8;html=1;verticalAlign=bottom;labelBackgroundColor=none;" edge="1" parent="1">
                    <mxGeometry width="160" relative="1" as="geometry">
                        <mxPoint x="445" y="470" as="sourcePoint"/>
                        <mxPoint x="595" y="470" as="targetPoint"/>
                        <Array as="points">
                            <mxPoint x="560" y="470"/>
                        </Array>
                    </mxGeometry>
                </mxCell>
                <mxCell id="42" value="7. Cria sonho" style="text;html=1;align=center;verticalAlign=middle;resizable=0;points=[];autosize=1;strokeColor=none;fillColor=none;" vertex="1" parent="1">
                    <mxGeometry x="445" y="440" width="90" height="30" as="geometry"/>
                </mxCell>
                <mxCell id="43" value="" style="endArrow=block;startArrow=none;endFill=1;startFill=0;endSize=8;html=1;verticalAlign=bottom;dashed=1;labelBackgroundColor=none;" edge="1" parent="1">
                    <mxGeometry width="160" relative="1" as="geometry">
                        <mxPoint x="590" y="510" as="sourcePoint"/>
                        <mxPoint x="444.9999999999998" y="510" as="targetPoint"/>
                    </mxGeometry>
                </mxCell>
            </root>
        </mxGraphModel>
    </diagram>
</mxfile>